<svg width="148" height="40" viewBox="0 0 148 40" fill="none" xmlns="http://www.w3.org/2000/svg">
<path d="M57.6046 17.3896C57.258 16.751 56.7563 16.2676 56.0995 15.9392C55.4609 15.5926 54.7038 15.4192 53.828 15.4192C52.3137 15.4192 51.1005 15.921 50.1883 16.9244C49.276 17.9096 48.8199 19.2323 48.8199 20.8926C48.8199 22.6622 49.2943 24.0489 50.243 25.0523C51.21 26.0375 52.5326 26.5301 54.2112 26.5301C55.3606 26.5301 56.3276 26.2382 57.112 25.6544C57.9148 25.0705 58.4986 24.2313 58.8635 23.1366H52.9249V19.6884H63.1054V24.0397C62.7587 25.2073 62.1657 26.293 61.3265 27.2964C60.5055 28.2998 59.4564 29.1117 58.1793 29.732C56.9023 30.3523 55.4609 30.6625 53.8554 30.6625C51.9579 30.6625 50.2612 30.252 48.7652 29.431C47.2874 28.5918 46.1288 27.4332 45.2896 25.9554C44.4686 24.4776 44.0581 22.79 44.0581 20.8926C44.0581 18.9951 44.4686 17.3075 45.2896 15.8297C46.1288 14.3337 47.2874 13.1751 48.7652 12.3541C50.243 11.5149 51.9306 11.0953 53.828 11.0953C56.1268 11.0953 58.0607 11.6518 59.6298 12.7646C61.217 13.8775 62.2661 15.4192 62.777 17.3896H57.6046ZM70.3772 17.8001C70.9246 16.9609 71.6087 16.3041 72.4297 15.8297C73.2507 15.3371 74.163 15.0908 75.1664 15.0908V20.0442H73.8802C72.7125 20.0442 71.8368 20.2997 71.253 20.8105C70.6691 21.3031 70.3772 22.1788 70.3772 23.4377V30.5257H65.6975V15.255H70.3772V17.8001ZM84.3544 30.7446C82.8582 30.7446 81.5082 30.4253 80.3041 29.7868C79.1182 29.1482 78.1785 28.236 77.4853 27.0501C76.8102 25.8642 76.4727 24.4776 76.4727 22.8903C76.4727 21.3213 76.8194 19.9439 77.5127 18.758C78.2059 17.5538 79.1547 16.6325 80.3588 15.9939C81.563 15.3553 82.913 15.0361 84.4091 15.0361C85.9051 15.0361 87.2552 15.3553 88.4594 15.9939C89.6635 16.6325 90.6122 17.5538 91.3055 18.758C91.9987 19.9439 92.3455 21.3213 92.3455 22.8903C92.3455 24.4594 91.9897 25.8459 91.2782 27.0501C90.5848 28.236 89.627 29.1482 88.4046 29.7868C87.2005 30.4253 85.8504 30.7446 84.3544 30.7446ZM84.3544 26.6943C85.2483 26.6943 86.0054 26.3659 86.6258 25.7091C87.2643 25.0523 87.5836 24.1127 87.5836 22.8903C87.5836 21.668 87.2734 20.7284 86.6532 20.0716C86.0511 19.4148 85.303 19.0864 84.4091 19.0864C83.4968 19.0864 82.7397 19.4148 82.1377 20.0716C81.5356 20.7102 81.2346 21.6497 81.2346 22.8903C81.2346 24.1127 81.5264 25.0523 82.1103 25.7091C82.7124 26.3659 83.4603 26.6943 84.3544 26.6943ZM116.748 15.255L112.616 30.5257H107.444L105.036 20.6189L102.546 30.5257H97.4006L93.2409 15.255H97.9206L100.083 26.1743L102.655 15.255H107.608L110.208 26.1196L112.342 15.255H116.748ZM126.196 19.1411H123.678V30.5257H118.999V19.1411H117.302V15.255H118.999V14.8171C118.999 12.938 119.537 11.5149 120.613 10.5479C121.69 9.56273 123.268 9.07013 125.348 9.07013C125.694 9.07013 125.95 9.07926 126.114 9.0975V13.0657C125.22 13.0109 124.591 13.1386 124.226 13.4488C123.861 13.759 123.678 14.3154 123.678 15.1182V15.255H126.196V19.1411ZM143.994 15.255L134.416 37.7778H129.38L132.883 30.0057L126.671 15.255H131.898L135.428 24.806L138.931 15.255H143.994Z" fill="white"/>
<path d="M23.1562 12.632C23.1562 8.56277 26.455 5.26404 30.5242 5.26404H37.8922V12.632C37.8922 16.7012 34.5934 20 30.5242 20C26.455 20 23.1562 16.7012 23.1562 12.632Z" fill="#FF6D35"/>
<path d="M30.5242 37.6771C26.455 37.6771 23.1562 34.3784 23.1562 30.3091V22.9412H30.5242C34.5934 22.9412 37.8922 26.2399 37.8922 30.3091C37.8922 34.3784 34.5934 37.6771 30.5242 37.6771Z" fill="#5CC97B"/>
<path d="M20.8347 20.6522C20.8347 12.4754 14.7085 5.84692 7.15137 5.84692V30.0214C7.15137 34.1096 10.2145 37.424 13.9931 37.424C17.7717 37.424 20.8347 34.1096 20.8347 30.0214V20.6522Z" fill="#3D96F4"/>
</svg>
