<svg width="77" height="76" viewBox="0 0 77 76" fill="none" xmlns="http://www.w3.org/2000/svg">
<g clip-path="url(#clip0_1_228)">
<g clip-path="url(#clip1_1_228)">
<path opacity="0.06" d="M55.4036 0.265625H21.6277C10.08 0.265625 0.71875 9.62687 0.71875 21.1745V54.9505C0.71875 66.4981 10.08 75.8594 21.6277 75.8594H55.4036C66.9513 75.8594 76.3125 66.4981 76.3125 54.9505V21.1745C76.3125 9.62687 66.9513 0.265625 55.4036 0.265625Z" fill="#0089FF"/>
<path d="M38.5158 63.8031C52.7318 63.8031 64.2562 52.2787 64.2562 38.0627C64.2562 23.8466 52.7318 12.3223 38.5158 12.3223C24.2997 12.3223 12.7754 23.8466 12.7754 38.0627C12.7754 52.2787 24.2997 63.8031 38.5158 63.8031Z" fill="#1B76FF"/>
<path fill-rule="evenodd" clip-rule="evenodd" d="M25.106 32.9688H29.7518V51.1299H25.106C24.4065 51.1299 23.8394 50.5898 23.8394 49.9236V34.175C23.8394 33.5088 24.4065 32.9688 25.106 32.9688Z" stroke="white" stroke-width="1.60838" stroke-linecap="round" stroke-linejoin="round"/>
<path fill-rule="evenodd" clip-rule="evenodd" d="M51.7795 47.7296C51.4854 49.993 49.9731 51.1297 47.2846 51.1297H33.217C31.3057 51.1297 29.7515 49.6668 29.7515 47.868V32.9904C34.2127 32.5555 36.4433 30.9981 36.4433 26.8103V24.8034C36.4433 22.6882 38.2438 20.9734 40.4648 20.9734C41.3112 20.9734 42.136 21.2277 42.8218 21.7001C43.7669 22.3525 44.3692 23.588 44.3692 25.3672V31.1764C44.3692 31.6705 45.2057 32.0758 46.0422 32.0758H50.5297C52.4201 32.0758 53.9534 33.4991 53.9953 35.2684C54.0234 36.4479 53.2848 40.099 51.7795 47.7296Z" stroke="white" stroke-width="1.60838" stroke-linecap="round" stroke-linejoin="round"/>
</g>
</g>
<defs>
<clipPath id="clip0_1_228">
<rect width="75.5938" height="75.5938" fill="white" transform="translate(0.71875 0.265625)"/>
</clipPath>
<clipPath id="clip1_1_228">
<rect width="75.5938" height="75.5938" fill="white" transform="translate(0.71875 0.265625)"/>
</clipPath>
</defs>
</svg>
