<svg width="77" height="76" viewBox="0 0 77 76" fill="none" xmlns="http://www.w3.org/2000/svg">
<g clip-path="url(#clip0_5_3)">
<g clip-path="url(#clip1_5_3)">
<path opacity="0.06" d="M55.9787 0H22.0213C10.4115 0 1 9.41155 1 21.0213V54.9787C1 66.5885 10.4115 76 22.0213 76H55.9787C67.5885 76 77 66.5885 77 54.9787V21.0213C77 9.41155 67.5885 0 55.9787 0Z" fill="#F6CA4F"/>
<path d="M39.0003 63.8788C53.2928 63.8788 64.879 52.2925 64.879 38.0001C64.879 23.7076 53.2928 12.1213 39.0003 12.1213C24.7079 12.1213 13.1216 23.7076 13.1216 38.0001C13.1216 52.2925 24.7079 63.8788 39.0003 63.8788Z" fill="#FF6D35"/>
<path d="M48.5503 49.6729H29.4493C27.1147 49.6729 25.2046 47.7628 25.2046 45.4282V30.5718C25.2046 28.2373 27.1147 26.3271 29.4493 26.3271H48.5503C50.8849 26.3271 52.795 28.2373 52.795 30.5718V45.4282C52.795 47.7628 50.8849 49.6729 48.5503 49.6729Z" stroke="white" stroke-width="2" stroke-miterlimit="10" stroke-linecap="round" stroke-linejoin="round"/>
<path d="M25.2046 31.6331L38.9998 40.1224L52.795 31.6331" stroke="white" stroke-width="2" stroke-miterlimit="10" stroke-linecap="round" stroke-linejoin="round"/>
</g>
</g>
<defs>
<clipPath id="clip0_5_3">
<rect width="75.5938" height="75.5938" fill="white" transform="translate(0.71875 0.265625)"/>
</clipPath>
<clipPath id="clip1_5_3">
<rect width="76" height="76" fill="white" transform="translate(1)"/>
</clipPath>
</defs>
</svg>
