<svg width="36" height="37" viewBox="0 0 36 37" fill="none" xmlns="http://www.w3.org/2000/svg">
<path d="M14.2051 12.7498C14.2049 13.1476 14.0467 13.5291 13.7652 13.8102C13.4838 14.0914 13.1022 14.2492 12.7043 14.249C12.3065 14.2488 11.9251 14.0906 11.6439 13.8092C11.3627 13.5277 11.2049 13.1461 11.2051 12.7483C11.2053 12.3504 11.3635 11.969 11.6449 11.6878C11.9264 11.4067 12.308 11.2488 12.7058 11.249C13.1037 11.2492 13.4851 11.4074 13.7663 11.6889C14.0474 11.9703 14.2053 12.3519 14.2051 12.7498ZM14.2501 15.3598H11.2501V24.7498H14.2501V15.3598ZM18.9901 15.3598H16.0051V24.7498H18.9601V19.8223C18.9601 17.0773 22.5376 16.8223 22.5376 19.8223V24.7498H25.5001V18.8023C25.5001 14.1748 20.2051 14.3473 18.9601 16.6198L18.9901 15.3598Z" fill="#75757F"/>
<rect x="0.5" y="1.01562" width="35" height="35" rx="17.5" stroke="#81818B" stroke-opacity="0.9"/>
</svg>
