<svg width="183" height="65" viewBox="0 0 183 65" fill="none" xmlns="http://www.w3.org/2000/svg">
<path fill-rule="evenodd" clip-rule="evenodd" d="M29.5952 31.2361C32.3355 27.7339 36.7237 25.4649 41.6697 25.4649C46.6447 25.4649 51.0552 27.7606 53.7923 31.298C53.6757 31.4118 53.5697 31.5298 53.4736 31.6476C52.9722 32.2645 52.595 33.059 52.2928 33.8659C51.6842 35.4887 51.22 37.6085 50.7903 39.5935L50.7521 39.7719C50.3232 41.7533 49.9247 43.5959 49.4427 44.9638C49.2262 45.5783 49.0209 46.0128 48.8388 46.291C48.6488 46.0105 48.4332 45.5708 48.2051 44.9475C47.6896 43.5403 47.2561 41.6263 46.7966 39.5827L46.7816 39.5157V39.5157C46.34 37.5527 45.8716 35.4699 45.2874 33.8756C44.994 33.0747 44.634 32.2881 44.163 31.6769C43.7009 31.0772 42.9316 30.4003 41.8064 30.4003C40.6883 30.4003 39.9154 31.0698 39.4466 31.6629C38.9665 32.2701 38.5923 33.0534 38.284 33.8547C37.6632 35.4682 37.1556 37.5789 36.6832 39.5666L36.6344 39.7719C36.1667 41.7409 35.7294 43.5818 35.233 44.9523C35.0435 45.4757 34.8647 45.8739 34.7029 46.1583C34.5447 45.8752 34.3703 45.4797 34.186 44.9607C33.7098 43.6194 33.2927 41.8301 32.8446 39.9083L32.7662 39.5719C32.302 37.583 31.7984 35.4685 31.1687 33.85C30.8558 33.0457 30.4731 32.2584 29.978 31.6484C29.8658 31.5103 29.7384 31.3701 29.5952 31.2361ZM27.9367 33.9253C28.0672 34.1701 28.2053 34.4736 28.348 34.8406C28.8931 36.2416 29.3548 38.1533 29.8303 40.1905L29.9228 40.5875C30.3558 42.4464 30.8061 44.38 31.3366 45.8739C31.6187 46.6684 31.9594 47.4466 32.3976 48.0514C32.812 48.6235 33.5554 49.3623 34.6985 49.3623C35.8382 49.3623 36.5834 48.627 37.0006 48.0576C37.4425 47.4542 37.7888 46.6769 38.0766 45.8818C38.6284 44.3584 39.0982 42.3794 39.5478 40.4855V40.4854L39.6166 40.1959C40.101 38.1574 40.5674 36.2419 41.1084 34.8358C41.3591 34.1843 41.5937 33.7305 41.798 33.449C41.9916 33.7281 42.2128 34.1747 42.4475 34.815C42.963 36.2222 43.3961 38.1361 43.8558 40.1798L43.8708 40.2467C44.3124 42.2098 44.7808 44.2926 45.3649 45.8867C45.6584 46.6879 46.0184 47.4745 46.4893 48.0855C46.9516 48.6854 47.7208 49.3623 48.8458 49.3623C49.9768 49.3623 50.7432 48.6792 51.2 48.074C51.6638 47.4599 52.0125 46.6707 52.2942 45.8708C52.8357 44.3344 53.2662 42.3408 53.6768 40.4444V40.4443L53.7356 40.169C54.1776 38.1278 54.6018 36.2214 55.1258 34.8246C55.2392 34.5208 55.351 34.2617 55.4576 34.0441C56.2603 35.7921 56.7055 37.7223 56.7055 39.7513C56.7055 47.6413 49.974 54.0377 41.6697 54.0377C33.3655 54.0377 26.6337 47.6413 26.6337 39.7513C26.6337 37.6762 27.0993 35.7044 27.9367 33.9253ZM41.6697 22.6077C31.7047 22.6077 23.6265 30.2831 23.6265 39.7513C23.6265 49.2194 31.7047 56.8948 41.6697 56.8948C51.6349 56.8948 59.7127 49.2194 59.7127 39.7513C59.7127 30.2831 51.6349 22.6077 41.6697 22.6077ZM42.0134 33.2098C42.0134 33.2101 42.0099 33.2128 42.0029 33.2167C42.0099 33.2114 42.0134 33.2095 42.0134 33.2098ZM41.5978 33.2117C41.5908 33.2077 41.5873 33.2049 41.5873 33.2045C41.5873 33.2042 41.5909 33.2062 41.5978 33.2117ZM48.6171 46.5623C48.6171 46.5623 48.6204 46.5592 48.6269 46.5552C48.6204 46.5605 48.6171 46.5627 48.6171 46.5623ZM49.0544 46.5508C49.0613 46.5548 49.0651 46.5574 49.0651 46.5579C49.0651 46.5583 49.0613 46.5561 49.0544 46.5508ZM34.3903 46.5879C34.3902 46.5875 34.3946 46.5835 34.4032 46.5778C34.3946 46.5853 34.3903 46.5884 34.3903 46.5879ZM34.9993 46.5804C35.0079 46.5862 35.0122 46.5901 35.0122 46.5906C35.0121 46.591 35.0078 46.5884 34.9993 46.5804Z" fill="#81818B"/>
<path d="M69.6756 49.9007L65.3003 35.6801H69.1328L71.7279 45.9154L74.745 35.6801H79.0301L82.0478 45.9154L84.6728 35.6801H88.5053L84.0995 49.9007H80.0864L76.8876 39.2639L73.6893 49.9007H69.6756Z" fill="#81818B"/>
<path d="M94.1284 50.2449C92.8411 50.2449 91.7848 50.0533 90.96 49.6711C90.1357 49.2698 89.522 48.7442 89.1193 48.0943C88.7172 47.4444 88.5161 46.7277 88.5161 45.9442C88.5161 44.6254 89.059 43.5549 90.1452 42.733C91.2314 41.9112 92.8615 41.5002 95.034 41.5002H98.836V41.1562C98.836 40.1813 98.5441 39.4646 97.9609 39.0059C97.3776 38.5471 96.6531 38.3178 95.7884 38.3178C95.0035 38.3178 94.3195 38.4993 93.7362 38.8625C93.1529 39.2066 92.7907 39.7226 92.65 40.4107H88.8778C88.9786 39.3786 89.3409 38.4802 89.9641 37.7157C90.6082 36.9512 91.433 36.3682 92.4384 35.9668C93.4448 35.5463 94.5709 35.3361 95.8183 35.3361C97.9509 35.3361 99.6304 35.8425 100.858 36.8556C102.085 37.8686 102.698 39.3022 102.698 41.1562V49.9007H99.4088L99.0471 47.6072C98.6045 48.3717 97.9808 49.0022 97.1765 49.4995C96.3916 49.9963 95.3758 50.2449 94.1284 50.2449ZM95.0035 47.3776C96.1102 47.3776 96.9649 47.0334 97.5682 46.3455C98.1919 45.6575 98.5846 44.8067 98.7457 43.7938H95.4561C94.4302 43.7938 93.6963 43.9754 93.2532 44.3386C92.8111 44.6824 92.5896 45.1129 92.5896 45.6287C92.5896 46.1831 92.8111 46.6131 93.2532 46.9188C93.6963 47.2245 94.279 47.3776 95.0035 47.3776Z" fill="#81818B"/>
<path d="M108.779 49.9007L103.287 35.6801H107.33L111.132 46.4317L114.934 35.6801H118.978L113.456 49.9007H108.779Z" fill="#81818B"/>
<path d="M126.742 50.2449C125.234 50.2449 123.896 49.9388 122.729 49.3273C121.562 48.7155 120.647 47.8554 119.983 46.7467C119.319 45.6385 118.988 44.3577 118.988 42.905C118.988 41.4333 119.31 40.124 119.953 38.9772C120.617 37.8304 121.522 36.9416 122.669 36.3108C123.835 35.661 125.203 35.3361 126.772 35.3361C128.241 35.3361 129.539 35.6419 130.665 36.2535C131.791 36.8651 132.667 37.7061 133.29 38.7765C133.934 39.8277 134.256 41.0032 134.256 42.303C134.256 42.5132 134.246 42.733 134.226 42.9624C134.226 43.1918 134.215 43.4307 134.195 43.6792H122.82C122.9 44.7877 123.303 45.6575 124.027 46.2884C124.771 46.9188 125.666 47.2343 126.713 47.2343C127.496 47.2343 128.151 47.0719 128.674 46.7467C129.216 46.403 129.619 45.9632 129.88 45.4279H133.803C133.522 46.3264 133.049 47.1485 132.385 47.8939C131.741 48.6199 130.937 49.1933 129.971 49.614C129.026 50.0343 127.949 50.2449 126.742 50.2449ZM126.772 38.3178C125.827 38.3178 124.992 38.5758 124.268 39.0919C123.544 39.5888 123.081 40.3534 122.88 41.3855H130.333C130.273 40.4489 129.911 39.7035 129.247 39.1492C128.583 38.5949 127.758 38.3178 126.772 38.3178Z" fill="#81818B"/>
<path d="M136.297 49.9007V29.2578H140.16V49.9007H136.297Z" fill="#81818B"/>
<path d="M150.171 50.2449C148.663 50.2449 147.325 49.9388 146.158 49.3273C144.992 48.7155 144.077 47.8554 143.412 46.7467C142.748 45.6385 142.417 44.3577 142.417 42.905C142.417 41.4333 142.739 40.124 143.382 38.9772C144.046 37.8304 144.951 36.9416 146.098 36.3108C147.265 35.661 148.632 35.3361 150.202 35.3361C151.67 35.3361 152.968 35.6419 154.095 36.2535C155.221 36.8651 156.096 37.7061 156.72 38.7765C157.363 39.8277 157.686 41.0032 157.686 42.303C157.686 42.5132 157.675 42.733 157.655 42.9624C157.655 43.1918 157.645 43.4307 157.625 43.6792H146.249C146.329 44.7877 146.732 45.6575 147.456 46.2884C148.2 46.9188 149.096 47.2343 150.142 47.2343C150.926 47.2343 151.58 47.0719 152.103 46.7467C152.646 46.403 153.048 45.9632 153.31 45.4279H157.233C156.951 46.3264 156.478 47.1485 155.814 47.8939C155.17 48.6199 154.366 49.1933 153.4 49.614C152.455 50.0343 151.379 50.2449 150.171 50.2449ZM150.202 38.3178C149.257 38.3178 148.421 38.5758 147.697 39.0919C146.973 39.5888 146.51 40.3534 146.309 41.3855H153.762C153.702 40.4489 153.34 39.7035 152.676 39.1492C152.012 38.5949 151.188 38.3178 150.202 38.3178Z" fill="#81818B"/>
<path d="M165.913 50.2449C164.585 50.2449 163.418 50.044 162.412 49.6428C161.406 49.222 160.601 48.6487 159.998 47.9222C159.395 47.1962 159.032 46.3552 158.912 45.3996H162.804C162.925 45.9535 163.247 46.4317 163.77 46.833C164.313 47.2152 165.007 47.4064 165.852 47.4064C166.697 47.4064 167.311 47.244 167.692 46.9188C168.095 46.5941 168.296 46.2212 168.296 45.8008C168.296 45.189 168.015 44.778 167.451 44.5678C166.888 44.3386 166.103 44.1188 165.097 43.9085C164.454 43.7747 163.8 43.6123 163.136 43.4211C162.472 43.23 161.859 42.991 161.296 42.7044C160.752 42.3985 160.31 42.0163 159.967 41.5575C159.626 41.0797 159.455 40.4967 159.455 39.8086C159.455 38.5471 159.978 37.4864 161.024 36.6262C162.09 35.7661 163.578 35.3361 165.49 35.3361C167.26 35.3361 168.668 35.7279 169.714 36.5115C170.78 37.2952 171.414 38.3751 171.616 39.7513H167.964C167.743 38.7001 166.908 38.1744 165.46 38.1744C164.735 38.1744 164.172 38.3082 163.77 38.5758C163.388 38.8434 163.197 39.1779 163.197 39.5793C163.197 39.9998 163.488 40.3343 164.072 40.5828C164.655 40.8312 165.43 41.0606 166.395 41.2709C167.441 41.5002 168.396 41.7582 169.261 42.0449C170.147 42.3125 170.851 42.7235 171.374 43.2778C171.897 43.8129 172.158 44.5869 172.158 45.6C172.179 46.4795 171.937 47.2723 171.434 47.9797C170.932 48.6867 170.208 49.2411 169.261 49.6428C168.316 50.044 167.2 50.2449 165.913 50.2449Z" fill="#81818B"/>
<path d="M180.559 50.2449C179.231 50.2449 178.064 50.044 177.059 49.6428C176.053 49.222 175.248 48.6487 174.645 47.9222C174.041 47.1962 173.679 46.3552 173.559 45.3996H177.451C177.572 45.9535 177.894 46.4317 178.416 46.833C178.96 47.2152 179.653 47.4064 180.499 47.4064C181.343 47.4064 181.957 47.244 182.339 46.9188C182.741 46.5941 182.943 46.2212 182.943 45.8008C182.943 45.189 182.661 44.778 182.098 44.5678C181.535 44.3386 180.75 44.1188 179.744 43.9085C179.101 43.7747 178.447 43.6123 177.783 43.4211C177.119 43.23 176.505 42.991 175.942 42.7044C175.399 42.3985 174.956 42.0163 174.614 41.5575C174.272 41.0797 174.101 40.4967 174.101 39.8086C174.101 38.5471 174.625 37.4864 175.671 36.6262C176.737 35.7661 178.225 35.3361 180.136 35.3361C181.907 35.3361 183.315 35.7279 184.361 36.5115C185.427 37.2952 186.06 38.3751 186.262 39.7513H182.611C182.39 38.7001 181.555 38.1744 180.106 38.1744C179.382 38.1744 178.819 38.3082 178.416 38.5758C178.034 38.8434 177.843 39.1779 177.843 39.5793C177.843 39.9998 178.134 40.3343 178.718 40.5828C179.302 40.8312 180.076 41.0606 181.041 41.2709C182.088 41.5002 183.043 41.7582 183.908 42.0449C184.794 42.3125 185.498 42.7235 186.021 43.2778C186.543 43.8129 186.805 44.5869 186.805 45.6C186.825 46.4795 186.584 47.2723 186.081 47.9797C185.578 48.6867 184.854 49.2411 183.908 49.6428C182.963 50.044 181.846 50.2449 180.559 50.2449Z" fill="#81818B"/>
</svg>
